<svg width="101" height="129" viewBox="0 0 101 129" fill="none" xmlns="http://www.w3.org/2000/svg">
<path d="M8.774 128.93C6.53879 128.93 4.58298 127.965 2.90658 126.037C1.23017 124.108 0.391968 121.858 0.391968 119.286V19.6312C0.391968 17.0595 1.23017 14.8092 2.90658 12.8805C4.58298 10.9517 6.53879 9.98725 8.774 9.98725H17.8545V0.343262H26.9351V9.98725H74.4333V0.343262H83.5138V9.98725H92.5943C94.8295 9.98725 96.7853 10.9517 98.4617 12.8805C100.138 14.8092 100.976 17.0595 100.976 19.6312V119.286C100.976 121.858 100.138 124.108 98.4617 126.037C96.7853 127.965 94.8295 128.93 92.5943 128.93H8.774ZM8.774 119.286H92.5943V50.1706H8.774V119.286ZM8.774 40.5266H92.5943V19.6312H8.774V40.5266ZM8.774 40.5266V19.6312V40.5266ZM50.6842 77.4952C49.1009 77.4952 47.7737 76.8791 46.7027 75.6468C45.6317 74.4145 45.0961 72.8875 45.0961 71.0659C45.0961 69.2442 45.6317 67.7173 46.7027 66.485C47.7737 65.2527 49.1009 64.6365 50.6842 64.6365C52.2674 64.6365 53.5946 65.2527 54.6656 66.485C55.7367 67.7173 56.2722 69.2442 56.2722 71.0659C56.2722 72.8875 55.7367 74.4145 54.6656 75.6468C53.5946 76.8791 52.2674 77.4952 50.6842 77.4952ZM28.3321 77.4952C26.7488 77.4952 25.4216 76.8791 24.3506 75.6468C23.2796 74.4145 22.7441 72.8875 22.7441 71.0659C22.7441 69.2442 23.2796 67.7173 24.3506 66.485C25.4216 65.2527 26.7488 64.6365 28.3321 64.6365C29.9153 64.6365 31.2425 65.2527 32.3135 66.485C33.3846 67.7173 33.9201 69.2442 33.9201 71.0659C33.9201 72.8875 33.3846 74.4145 32.3135 75.6468C31.2425 76.8791 29.9153 77.4952 28.3321 77.4952ZM73.0362 77.4952C71.453 77.4952 70.1258 76.8791 69.0548 75.6468C67.9837 74.4145 67.4482 72.8875 67.4482 71.0659C67.4482 69.2442 67.9837 67.7173 69.0548 66.485C70.1258 65.2527 71.453 64.6365 73.0362 64.6365C74.6195 64.6365 75.9467 65.2527 77.0177 66.485C78.0888 67.7173 78.6243 69.2442 78.6243 71.0659C78.6243 72.8875 78.0888 74.4145 77.0177 75.6468C75.9467 76.8791 74.6195 77.4952 73.0362 77.4952ZM50.6842 103.213C49.1009 103.213 47.7737 102.596 46.7027 101.364C45.6317 100.132 45.0961 98.6048 45.0961 96.7832C45.0961 94.9615 45.6317 93.4346 46.7027 92.2023C47.7737 90.97 49.1009 90.3539 50.6842 90.3539C52.2674 90.3539 53.5946 90.97 54.6656 92.2023C55.7367 93.4346 56.2722 94.9615 56.2722 96.7832C56.2722 98.6048 55.7367 100.132 54.6656 101.364C53.5946 102.596 52.2674 103.213 50.6842 103.213ZM28.3321 103.213C26.7488 103.213 25.4216 102.596 24.3506 101.364C23.2796 100.132 22.7441 98.6048 22.7441 96.7832C22.7441 94.9615 23.2796 93.4346 24.3506 92.2023C25.4216 90.97 26.7488 90.3539 28.3321 90.3539C29.9153 90.3539 31.2425 90.97 32.3135 92.2023C33.3846 93.4346 33.9201 94.9615 33.9201 96.7832C33.9201 98.6048 33.3846 100.132 32.3135 101.364C31.2425 102.596 29.9153 103.213 28.3321 103.213ZM73.0362 103.213C71.453 103.213 70.1258 102.596 69.0548 101.364C67.9837 100.132 67.4482 98.6048 67.4482 96.7832C67.4482 94.9615 67.9837 93.4346 69.0548 92.2023C70.1258 90.97 71.453 90.3539 73.0362 90.3539C74.6195 90.3539 75.9467 90.97 77.0177 92.2023C78.0888 93.4346 78.6243 94.9615 78.6243 96.7832C78.6243 98.6048 78.0888 100.132 77.0177 101.364C75.9467 102.596 74.6195 103.213 73.0362 103.213Z" fill="url(#paint0_linear_1_27)"/>
<defs>
<linearGradient id="paint0_linear_1_27" x1="50.6842" y1="0.343262" x2="50.6842" y2="128.93" gradientUnits="userSpaceOnUse">
<stop stop-color="#782FEE"/>
<stop offset="1" stop-color="#DD00FF"/>
</linearGradient>
</defs>
</svg>
