<svg width="509" height="508" viewBox="0 0 509 508" fill="none" xmlns="http://www.w3.org/2000/svg">
<path fill-rule="evenodd" clip-rule="evenodd" d="M265.045 11.0789C279.644 -3.52222 303.315 -3.5214 317.915 11.0783L339.019 32.1829L339.019 32.1837C351.794 44.9573 353.391 64.6749 343.812 79.1854L429.197 164.57C443.708 154.991 463.426 156.589 476.2 169.363L497.304 190.467C511.902 205.067 511.903 228.738 497.304 243.337L381.229 359.412C366.629 374.012 342.958 374.012 328.359 359.412L307.255 338.309C294.48 325.535 292.883 305.817 302.462 291.306L286.204 275.049L231.386 329.867C243.827 347.378 242.199 371.816 226.501 387.513L119.479 494.536C101.965 512.05 73.5701 512.05 56.0563 494.536L13.847 452.327C-3.66675 434.813 -3.66679 406.418 13.8469 388.904L120.868 281.881C136.566 266.184 161.004 264.555 178.515 276.997L233.333 222.178L217.076 205.921C202.566 215.5 182.848 213.901 170.074 201.128L148.97 180.024C134.37 165.424 134.37 141.753 148.97 127.154L265.045 11.0789ZM238.827 185.245L323.136 100.936L407.447 185.246L323.137 269.555L286.204 232.622L210.618 308.208L200.174 297.764L275.76 222.178L238.827 185.245ZM207.007 174.638L201.731 179.914C198.848 182.798 194.172 182.799 191.287 179.914L170.183 158.81C167.3 155.927 167.298 151.251 170.183 148.367L286.258 32.2915C289.141 29.4084 293.817 29.4069 296.702 32.2913L317.806 53.3964L317.807 53.3972C320.69 56.2801 320.691 60.9555 317.806 63.8402L207.007 174.638ZM454.986 190.576C452.102 187.691 447.426 187.692 444.543 190.576L328.468 306.651C325.583 309.536 325.584 314.211 328.467 317.094L349.572 338.199C352.456 341.084 357.132 341.083 360.015 338.2L476.091 222.124C478.973 219.241 478.974 214.565 476.091 211.68L454.986 190.576ZM163.078 303.094C157.28 297.296 147.88 297.296 142.082 303.094L35.0603 410.117C29.2623 415.915 29.2622 425.315 35.0602 431.113L77.2695 473.323C83.0676 479.121 92.4675 479.121 98.2656 473.323L205.288 366.3C211.086 360.502 211.086 351.102 205.288 345.304L163.078 303.094Z" fill="url(#paint0_linear_1_17)"/>
<defs>
<linearGradient id="paint0_linear_1_17" x1="254.482" y1="15.1283" x2="254.482" y2="492.671" gradientUnits="userSpaceOnUse">
<stop stop-color="#782FEE"/>
<stop offset="1" stop-color="#DD00FF"/>
</linearGradient>
</defs>
</svg>
