<svg width="530" height="491" viewBox="0 0 530 491" fill="none" xmlns="http://www.w3.org/2000/svg">
<path fill-rule="evenodd" clip-rule="evenodd" d="M58.2005 102.152C58.2005 52.7031 95.9609 0.660278 159.572 0.660278C193.798 0.660278 220.184 17.7911 239.275 38.0868C249.569 49.0303 258.037 61.1818 264.84 72.7686C271.627 61.1791 280.085 49.0291 290.378 38.0868C309.479 17.7814 335.896 0.660278 370.171 0.660278C433.783 0.660278 471.543 52.7031 471.543 102.152C471.543 106.798 471.156 111.304 470.485 115.663H475.71C505.198 115.663 529.044 139.509 529.044 168.997V299H269.039V145.663H260.705V299H0.699097V168.997C0.699097 139.509 24.5454 115.663 54.0333 115.663H59.2253C58.5662 111.285 58.2005 106.781 58.2005 102.152ZM276.968 115.663H299.039V134.065L303.1 124.697C308.693 111.796 317.062 96.093 327.427 83.3347C337.162 71.352 351.744 58.1617 370.171 58.1617C385.44 58.1617 396.972 64.6671 404.339 74.0145C411.274 82.8146 414.042 93.4613 414.042 102.152C414.042 111.458 411.213 124.948 398.388 136.192L398.325 136.247L398.262 136.302C394.789 139.278 390.937 141.824 386.779 143.979L383.532 145.663H299.039V269H499.044V168.997C499.044 156.078 488.629 145.663 475.71 145.663H430.287L437.079 125.808C439.861 117.676 441.543 109.918 441.543 102.152C441.543 66.5466 414.614 30.6603 370.171 30.6603C346.825 30.6603 327.78 42.1101 312.23 58.6416C296.571 75.2882 285.479 96.0894 278.628 111.846L276.968 115.663ZM252.789 115.663H230.705V134.097L226.651 124.714C220.998 111.631 212.624 95.9136 202.26 83.1866C192.501 71.2024 177.957 58.1617 159.572 58.1617C144.304 58.1617 132.771 64.6671 125.405 74.0145C118.469 82.8146 115.702 93.4613 115.702 102.152C115.702 111.458 118.531 124.948 131.355 136.192L131.418 136.247L131.482 136.302C134.955 139.278 138.807 141.824 142.964 143.979L146.211 145.663H230.705V269H30.6991V168.997C30.6991 156.078 41.114 145.663 54.0333 145.663H99.7188L92.6059 125.642C89.8048 117.757 88.2005 110.012 88.2005 102.152C88.2005 66.5466 115.129 30.6603 159.572 30.6603C182.848 30.6603 201.864 42.1004 217.423 58.6416C233.089 75.2952 244.215 96.1059 251.134 111.888L252.789 115.663ZM148.967 92.5841C146.768 95.3741 145.702 99.2224 145.702 102.152C145.702 105.291 146.46 109.506 151.07 113.579C151.905 114.29 152.836 114.986 153.875 115.663H188.391C185.474 110.826 182.317 106.206 178.998 102.13C170.368 91.5328 163.59 88.1617 159.572 88.1617C153.637 88.1617 150.734 90.3413 148.967 92.5841ZM341.395 115.663H375.869C376.908 114.986 377.839 114.289 378.674 113.579C383.283 109.506 384.042 105.291 384.042 102.152C384.042 99.2224 382.975 95.374 380.777 92.584C379.009 90.3413 376.106 88.1617 370.171 88.1617C366.197 88.1617 359.395 91.5628 350.712 102.251C347.417 106.306 344.285 110.885 341.395 115.663ZM0.699097 307.334H260.705V490.671H54.0333C24.5454 490.671 0.699097 466.825 0.699097 437.337V307.334ZM30.6991 337.334V437.337C30.6991 450.256 41.114 460.671 54.0333 460.671H230.705V337.334H30.6991ZM269.039 307.334H529.044V437.337C529.044 466.825 505.198 490.671 475.71 490.671H269.039V307.334ZM299.039 337.334V460.671H475.71C488.629 460.671 499.044 450.256 499.044 437.337V337.334H299.039Z" fill="url(#paint0_linear_1_18)"/>
<defs>
<linearGradient id="paint0_linear_1_18" x1="264.872" y1="15.6603" x2="264.872" y2="475.671" gradientUnits="userSpaceOnUse">
<stop stop-color="#782FEE"/>
<stop offset="1" stop-color="#DD00FF"/>
</linearGradient>
</defs>
</svg>
