<svg width="113" height="113" viewBox="0 0 113 113" fill="none" xmlns="http://www.w3.org/2000/svg">
<path d="M8.85487 103.93V59.204V103.93ZM103.851 103.93V59.204V103.93ZM95.4692 36.8411C97.8907 36.8411 99.8931 36.0258 101.476 34.3952C103.06 32.7646 103.851 30.7845 103.851 28.455C103.851 26.0324 103.06 24.0291 101.476 22.445C99.8931 20.861 97.8907 20.069 95.4692 20.069C93.1409 20.069 91.1618 20.861 89.5319 22.445C87.9021 24.0291 87.0872 26.0324 87.0872 28.455C87.0872 30.7845 87.9021 32.7646 89.5319 34.3952C91.1618 36.0258 93.1409 36.8411 95.4692 36.8411ZM95.4692 45.2272C90.7194 45.2272 86.7379 43.6199 83.5248 40.4052C80.3117 37.1905 78.7051 33.2072 78.7051 28.455C78.7051 23.7961 80.3117 19.836 83.5248 16.5748C86.7379 13.3135 90.7194 11.6829 95.4692 11.6829C100.126 11.6829 104.084 13.3135 107.344 16.5748C110.603 19.836 112.233 23.7961 112.233 28.455C112.233 33.2072 110.603 37.1905 107.344 40.4052C104.084 43.6199 100.126 45.2272 95.4692 45.2272ZM56.3531 31.2504C59.4265 31.2504 62.0575 30.1789 64.2461 28.0357C66.4348 25.8926 67.5291 23.237 67.5291 20.069C67.5291 16.9941 66.4348 14.3618 64.2461 12.1721C62.0575 9.98239 59.4265 8.88754 56.3531 8.88754C53.1865 8.88754 50.5322 9.98239 48.3901 12.1721C46.248 14.3618 45.177 16.9941 45.177 20.069C45.177 23.237 46.248 25.8926 48.3901 28.0357C50.5322 30.1789 53.1865 31.2504 56.3531 31.2504ZM56.3531 39.6365C50.8582 39.6365 46.2248 37.7496 42.4528 33.9759C38.6809 30.2021 36.795 25.5665 36.795 20.069C36.795 14.6646 38.6809 10.0523 42.4528 6.23195C46.2248 2.41163 50.8582 0.501465 56.3531 0.501465C61.7548 0.501465 66.3649 2.41163 70.1834 6.23195C74.0019 10.0523 75.9111 14.6646 75.9111 20.069C75.9111 25.5665 74.0019 30.2021 70.1834 33.9759C66.3649 37.7496 61.7548 39.6365 56.3531 39.6365ZM31.207 64.0959C31.207 67.3571 32.9066 71.1309 36.306 75.4171C39.7054 79.7033 46.3877 86.3656 56.3531 95.4039C66.2252 86.4587 72.8843 79.8663 76.3302 75.6267C79.7762 71.3871 81.4991 67.5435 81.4991 64.0959C81.4991 61.1142 80.5212 58.6216 78.5654 56.6183C76.6096 54.6149 74.2347 53.6133 71.4407 53.6133C69.7643 53.6133 68.2043 54.0326 66.7607 54.8712C65.3172 55.7098 63.9434 56.6882 62.6396 57.8063L56.3531 63.6766L49.9268 57.8063C48.623 56.6882 47.2492 55.7098 45.8057 54.8712C44.3621 54.0326 42.8487 53.6133 41.2654 53.6133C38.3783 53.6133 35.9801 54.6382 34.0708 56.6882C32.1616 58.7381 31.207 61.2073 31.207 64.0959ZM22.8249 64.0959C22.8249 59.1574 24.6876 54.778 28.4129 50.9577C32.1383 47.1374 36.4224 45.2272 41.2654 45.2272C44.0594 45.2272 46.8068 45.8795 49.5077 47.184C52.2086 48.4885 54.4904 50.2588 56.3531 52.4951C58.2157 50.2588 60.4742 48.4885 63.1285 47.184C65.7828 45.8795 68.5536 45.2272 71.4407 45.2272C76.1905 45.2272 80.4514 47.1374 84.2233 50.9577C87.9952 54.778 89.8812 59.1574 89.8812 64.0959C89.8812 69.0343 88.0884 73.9029 84.5027 78.7016C80.9171 83.5003 73.5828 90.9779 62.4999 101.134L56.3531 106.725L50.2062 101.134C38.937 90.8847 31.5562 83.3838 28.0637 78.6317C24.5712 73.8796 22.8249 69.0343 22.8249 64.0959ZM17.2369 36.8411C19.6584 36.8411 21.6608 36.0258 23.244 34.3952C24.8273 32.7646 25.6189 30.7845 25.6189 28.455C25.6189 26.0324 24.8273 24.0291 23.244 22.445C21.6608 20.861 19.6584 20.069 17.2369 20.069C14.9086 20.069 12.9295 20.861 11.2996 22.445C9.66979 24.0291 8.85487 26.0324 8.85487 28.455C8.85487 30.7845 9.66979 32.7646 11.2996 34.3952C12.9295 36.0258 14.9086 36.8411 17.2369 36.8411ZM56.7722 112.316V103.93H103.851V59.204H84.0138V50.8179H103.851C106.18 50.8179 108.159 51.6332 109.789 53.2639C111.418 54.8945 112.233 56.8745 112.233 59.204V112.316H56.7722ZM8.85487 103.93H56.7722V112.316H0.472839V59.204C0.472839 56.8745 1.28776 54.8945 2.9176 53.2639C4.54744 51.6332 6.52653 50.8179 8.85487 50.8179H28.5526V59.204H8.85487V103.93ZM17.2369 45.2272C12.4871 45.2272 8.50562 43.6199 5.29251 40.4052C2.0794 37.1905 0.472839 33.2072 0.472839 28.455C0.472839 23.7961 2.0794 19.836 5.29251 16.5748C8.50562 13.3135 12.4871 11.6829 17.2369 11.6829C21.8936 11.6829 25.8518 13.3135 29.1114 16.5748C32.3711 19.836 34.001 23.7961 34.001 28.455C34.001 33.2072 32.3711 37.1905 29.1114 40.4052C25.8518 43.6199 21.8936 45.2272 17.2369 45.2272Z" fill="url(#paint0_linear_1_39)"/>
<defs>
<linearGradient id="paint0_linear_1_39" x1="56.3531" y1="0.501465" x2="56.3531" y2="112.316" gradientUnits="userSpaceOnUse">
<stop stop-color="#782FEE"/>
<stop offset="1" stop-color="#DD00FF"/>
</linearGradient>
</defs>
</svg>
