<svg width="118" height="129" viewBox="0 0 118 129" fill="none" xmlns="http://www.w3.org/2000/svg">
<path d="M82.4223 61.2528C84.0889 61.2528 85.4859 60.6042 86.6133 59.307C87.7408 58.0099 88.3045 56.4026 88.3045 54.485C88.3045 52.5675 87.7408 50.9602 86.6133 49.663C85.4859 48.3659 84.0889 47.7173 82.4223 47.7173C80.7557 47.7173 79.3587 48.3659 78.2313 49.663C77.1039 50.9602 76.5402 52.5675 76.5402 54.485C76.5402 56.4026 77.1039 58.0099 78.2313 59.307C79.3587 60.6042 80.7557 61.2528 82.4223 61.2528ZM35.3653 44.3335H64.7759V34.1819H35.3653V44.3335ZM14.7779 128.93C11.4447 116.071 8.16047 103.241 4.9253 90.4385C1.69013 77.6363 0.0725403 64.5238 0.0725403 51.1012C0.0725403 40.724 3.20967 31.926 9.48394 24.7071C15.7582 17.4882 23.405 13.8788 32.4242 13.8788H61.8349C64.6779 9.59253 68.1337 6.26507 72.2021 3.89637C76.2706 1.52767 80.6577 0.343323 85.3634 0.343323C87.8143 0.343323 89.8975 1.33028 91.6132 3.3042C93.3288 5.27811 94.1866 7.67501 94.1866 10.4949C94.1866 11.1717 94.1131 11.8484 93.966 12.5252C93.8189 13.202 93.6474 13.8224 93.4513 14.3863C93.0592 15.6271 92.6915 16.896 92.3484 18.1932C92.0053 19.4903 91.7357 20.8157 91.5396 22.1692L104.921 37.5658H117.715V84.7706L101.098 91.0307L91.2455 128.93H58.8938V115.394H47.1296V128.93H14.7779ZM21.3953 118.778H38.3064V105.243H67.717V118.778H84.6281L93.8925 83.2478L108.892 77.3261V47.7173H101.245L82.4223 26.0606C82.5204 23.2408 82.839 20.5055 83.3782 17.8548C83.9174 15.2041 84.4811 12.5252 85.0693 9.81812C81.3439 10.9461 77.8147 12.6098 74.4815 14.8093C71.1482 17.0088 68.5993 20.0825 66.8347 24.0303H32.4242C25.9539 24.0303 20.4149 26.681 15.8072 31.9824C11.1996 37.2838 8.89573 43.6567 8.89573 51.1012C8.89573 62.7191 10.3172 74.0832 13.1603 85.1935C16.0033 96.3039 18.7483 107.499 21.3953 118.778Z" fill="url(#paint0_linear_1_33)"/>
<defs>
<linearGradient id="paint0_linear_1_33" x1="58.8938" y1="0.343323" x2="58.8938" y2="128.93" gradientUnits="userSpaceOnUse">
<stop stop-color="#782FEE"/>
<stop offset="1" stop-color="#DD00FF"/>
</linearGradient>
</defs>
</svg>
