<svg width="508" height="508" viewBox="0 0 508 508" fill="none" xmlns="http://www.w3.org/2000/svg">
<path fill-rule="evenodd" clip-rule="evenodd" d="M264.544 11.0734C279.143 -3.52772 302.814 -3.52689 317.414 11.0728L338.518 32.1774L338.518 32.1782C351.293 44.9518 352.89 64.6694 343.311 79.1799L428.696 164.565C443.207 154.985 462.925 156.584 475.699 169.357L496.803 190.462C511.401 205.061 511.402 228.732 496.803 243.331L380.728 359.406C366.128 374.007 342.457 374.006 327.858 359.407L306.754 338.303C293.979 325.529 292.382 305.811 301.961 291.301L285.703 275.043L230.885 329.862C243.326 347.372 241.698 371.811 226 387.508L118.978 494.53C101.464 512.044 73.0691 512.044 55.5553 494.53L13.3461 452.321C-4.16772 434.807 -4.16776 406.413 13.346 388.899L120.368 281.875C136.065 266.178 160.503 264.55 178.014 276.991L232.832 222.172L216.575 205.915C202.065 215.494 182.347 213.896 169.573 201.122L148.469 180.019C133.869 165.419 133.869 141.748 148.469 127.148L264.544 11.0734ZM238.326 185.239L322.635 100.931L406.946 185.24L322.636 269.55L285.703 232.617L210.117 308.203L199.673 297.758L275.259 222.172L238.326 185.239ZM206.506 174.633L201.23 179.909C198.347 182.792 193.671 182.794 190.786 179.909L169.682 158.805C166.799 155.922 166.797 151.246 169.682 148.361L285.757 32.286C288.64 29.4029 293.316 29.4014 296.201 32.2858L317.305 53.3909L317.306 53.3917C320.189 56.2746 320.19 60.95 317.305 63.8347L206.506 174.633ZM454.485 190.571C451.601 187.686 446.925 187.687 444.042 190.57L327.967 306.646C325.082 309.53 325.083 314.206 327.966 317.089L349.071 338.194C351.955 341.078 356.631 341.077 359.514 338.194L475.59 222.118C478.472 219.235 478.473 214.56 475.59 211.675L454.485 190.571ZM162.577 303.089C156.779 297.29 147.379 297.29 141.581 303.089L34.5593 410.112C28.7613 415.91 28.7612 425.31 34.5592 431.108L76.7685 473.317C82.5666 479.115 91.9665 479.115 97.7646 473.317L204.787 366.295C210.585 360.497 210.585 351.097 204.787 345.299L162.577 303.089Z" fill="#4F465C"/>
</svg>
