<svg width="529" height="491" viewBox="0 0 529 491" fill="none" xmlns="http://www.w3.org/2000/svg">
<path fill-rule="evenodd" clip-rule="evenodd" d="M57.6995 102.146C57.6995 52.6976 95.4599 0.654785 159.071 0.654785C193.297 0.654785 219.683 17.7856 238.774 38.0813C249.068 49.0248 257.536 61.1763 264.339 72.7631C271.126 61.1736 279.584 49.0236 289.877 38.0813C308.978 17.7759 335.395 0.654785 369.67 0.654785C433.282 0.654785 471.042 52.6976 471.042 102.146C471.042 106.793 470.655 111.299 469.984 115.658H475.209C504.697 115.658 528.543 139.504 528.543 168.992V298.995H268.538V145.658H260.204V298.995H0.19812V168.992C0.19812 139.504 24.0445 115.658 53.5324 115.658H58.7243C58.0652 111.279 57.6995 106.775 57.6995 102.146ZM276.467 115.658H298.538V134.06L302.599 124.692C308.192 111.79 316.561 96.0875 326.926 83.3292C336.661 71.3465 351.243 58.1562 369.67 58.1562C384.939 58.1562 396.471 64.6616 403.838 74.009C410.773 82.8091 413.541 93.4559 413.541 102.146C413.541 111.452 410.712 124.943 397.887 136.186L397.824 136.242L397.761 136.296C394.288 139.273 390.436 141.818 386.278 143.974L383.031 145.658H298.538V268.995H498.543V168.992C498.543 156.072 488.128 145.658 475.209 145.658H429.786L436.578 125.802C439.36 117.671 441.042 109.912 441.042 102.146C441.042 66.5411 414.113 30.6548 369.67 30.6548C346.324 30.6548 327.279 42.1046 311.729 58.6361C296.07 75.2827 284.978 96.0839 278.127 111.841L276.467 115.658ZM252.288 115.658H230.204V134.092L226.15 124.708C220.497 111.625 212.123 95.9081 201.759 83.1811C192 71.1969 177.456 58.1562 159.071 58.1562C143.803 58.1562 132.271 64.6616 124.904 74.009C117.968 82.8091 115.201 93.4558 115.201 102.146C115.201 111.452 118.03 124.943 130.854 136.186L130.917 136.242L130.981 136.296C134.454 139.273 138.306 141.818 142.463 143.974L145.71 145.658H230.204V268.995H30.1981V168.992C30.1981 156.072 40.613 145.658 53.5324 145.658H99.2179L92.105 125.636C89.3039 117.751 87.6995 110.006 87.6995 102.146C87.6995 66.5412 114.628 30.6548 159.071 30.6548C182.348 30.6548 201.363 42.0949 216.923 58.6361C232.588 75.2898 243.714 96.1004 250.633 111.883L252.288 115.658ZM148.466 92.5786C146.267 95.3686 145.201 99.2169 145.201 102.146C145.201 105.285 145.959 109.5 150.569 113.574C151.404 114.284 152.335 114.981 153.374 115.658H187.89C184.973 110.82 181.816 106.2 178.497 102.124C169.867 91.5273 163.089 88.1562 159.071 88.1562C153.136 88.1562 150.233 90.3358 148.466 92.5786ZM340.895 115.658H375.368C376.407 114.981 377.338 114.284 378.173 113.573C382.782 109.5 383.541 105.285 383.541 102.146C383.541 99.2169 382.475 95.3685 380.276 92.5786C378.508 90.3358 375.605 88.1562 369.67 88.1562C365.696 88.1562 358.894 91.5573 350.211 102.246C346.916 106.301 343.785 110.88 340.895 115.658ZM0.19812 307.329H260.204V490.666H53.5324C24.0445 490.666 0.19812 466.819 0.19812 437.332V307.329ZM30.1981 337.329V437.332C30.1981 450.251 40.613 460.666 53.5324 460.666H230.204V337.329H30.1981ZM268.538 307.329H528.543V437.332C528.543 466.819 504.697 490.666 475.209 490.666H268.538V307.329ZM298.538 337.329V460.666H475.209C488.128 460.666 498.543 450.251 498.543 437.332V337.329H298.538Z" fill="#4F465C"/>
</svg>
