<?xml version="1.0" standalone="no"?>
<!DOCTYPE svg PUBLIC "-//W3C//DTD SVG 20010904//EN"
 "http://www.w3.org/TR/2001/REC-SVG-20010904/DTD/svg10.dtd">
<svg version="1.0" xmlns="http://www.w3.org/2000/svg"
 width="127.000000pt" height="127.000000pt" viewBox="0 0 127.000000 127.000000"
 preserveAspectRatio="xMidYMid meet">

<g transform="translate(0.000000,127.000000) scale(0.100000,-0.100000)"
fill="#000000" stroke="none">
<path d="M545 1264 c-242 -38 -450 -220 -521 -459 -25 -81 -25 -257 0 -340 62
-209 231 -378 441 -441 81 -25 257 -25 340 0 209 62 379 232 441 441 24 82 24
258 0 340 -61 207 -232 379 -435 439 -55 16 -213 28 -266 20z m220 -239 c28
-10 54 -21 60 -26 6 -6 -92 -111 -265 -284 -151 -151 -278 -275 -282 -275 -12
0 -36 64 -49 131 -9 48 -9 76 0 127 47 255 296 407 536 327z m247 -229 c68
-143 32 -332 -87 -451 -94 -94 -235 -139 -356 -116 -54 11 -111 32 -129 48 -4
4 541 553 551 553 3 0 13 -15 21 -34z"/>
</g>
</svg>
